<svg id="Layer_1" data-name="Layer 1" xmlns="http://www.w3.org/2000/svg" viewBox="0 0 381.03 248.81"><defs><style>.cls-1{fill:#1d1d1b;}</style></defs><path class="cls-1" d="M262.33,359.72l3.63,2a12.16,12.16,0,0,1-4.94,7.2,14.66,14.66,0,0,1-8.54,2.56,13.22,13.22,0,0,1-10.16-4.11,14.33,14.33,0,0,1-3.82-10.16q0-6.63,3.84-10.55a13.43,13.43,0,0,1,10-3.93,14.23,14.23,0,0,1,9.19,3v-2.55h3.61v9h-3.61a9,9,0,0,0-3.7-4.22,10.19,10.19,0,0,0-5.27-1.49,8.74,8.74,0,0,0-6.84,3,11,11,0,0,0-2.68,7.59,10.67,10.67,0,0,0,2.87,7.7,9.09,9.09,0,0,0,6.79,3,9.31,9.31,0,0,0,5.87-2.07A11.06,11.06,0,0,0,262.33,359.72Z" transform="translate(-234.63 -174.73)"/><path class="cls-1" d="M271.86,367.67V346.58h-3.51v-3.39h7.32v10.7c2.28-1.84,4.45-2.77,6.51-2.77a5.68,5.68,0,0,1,3.16.81A4,4,0,0,1,287,354a12.45,12.45,0,0,1,.45,3.84v9.79h3.31v3.39h-7.11V359.2a20.14,20.14,0,0,0-.14-2.95,2,2,0,0,0-.77-1.22,2.4,2.4,0,0,0-1.5-.48c-1.47,0-3.33.84-5.6,2.5v10.62H279v3.39H268.35v-3.39Z" transform="translate(-234.63 -174.73)"/><path class="cls-1" d="M311.47,367.67v3.39h-6.65v-2.37a8.68,8.68,0,0,1-6.17,2.69,6.75,6.75,0,0,1-4.6-1.72,5.62,5.62,0,0,1-1.95-4.41,5.68,5.68,0,0,1,2.07-4.49,7.4,7.4,0,0,1,5-1.78,9.65,9.65,0,0,1,5.27,1.64V358.7a7.51,7.51,0,0,0-.28-2.29,3,3,0,0,0-1.32-1.44,5,5,0,0,0-2.69-.64,4.41,4.41,0,0,0-4.15,2.28l-3.64-1q2.42-4.53,8.37-4.53a10.75,10.75,0,0,1,3.78.6,5.5,5.5,0,0,1,2.37,1.52,5,5,0,0,1,1.05,2,15.7,15.7,0,0,1,.27,3.45v9Zm-7-3.82a8.06,8.06,0,0,0-5-1.93,3.92,3.92,0,0,0-2.65.92,3.24,3.24,0,0,0-.13,4.67,3.43,3.43,0,0,0,2.54.92,7.56,7.56,0,0,0,5.23-2.32Z" transform="translate(-234.63 -174.73)"/><path class="cls-1" d="M320.3,351.67V354c2.44-1.76,4.67-2.65,6.69-2.65a5.14,5.14,0,0,1,3.11.9,4.09,4.09,0,0,1,1.62,2.18,14.36,14.36,0,0,1,.38,3.78v9.45h3.26v3.39h-7.07V358.38a4.34,4.34,0,0,0-.66-2.88,2.17,2.17,0,0,0-1.62-.67c-1.68,0-3.59.82-5.71,2.46v10.38h3.34v3.39H313.09v-3.39h3.4V355.05h-3.4v-3.38Z" transform="translate(-234.63 -174.73)"/><path class="cls-1" d="M360.27,351.67v3.38h-3.48v14.44a22.8,22.8,0,0,1-.3,4.34,7.28,7.28,0,0,1-1.45,2.89,8.69,8.69,0,0,1-3.46,2.47,12.75,12.75,0,0,1-5.15,1,12.23,12.23,0,0,1-7.65-2.58l2.48-2.77a8.77,8.77,0,0,0,5.49,2,7.37,7.37,0,0,0,3.05-.63,5.45,5.45,0,0,0,2.09-1.54,4.69,4.69,0,0,0,.89-1.71,13.09,13.09,0,0,0,.2-2.73v-1.77a8.69,8.69,0,0,1-2.82,2.17,8.85,8.85,0,0,1-4.21,1,8.74,8.74,0,0,1-6.79-2.89,10.13,10.13,0,0,1-2.62-7.09,9.94,9.94,0,0,1,2.89-7.44,9.25,9.25,0,0,1,13.55.23v-2.76Zm-19.69,9.89a6.82,6.82,0,0,0,1.71,4.81,5.7,5.7,0,0,0,4.38,1.86,6.14,6.14,0,0,0,4.49-1.87,6.52,6.52,0,0,0,1.88-4.82,6.38,6.38,0,0,0-1.88-4.8,6.15,6.15,0,0,0-4.37-1.81,6.08,6.08,0,0,0-4.34,1.79A6.39,6.39,0,0,0,340.58,361.56Z" transform="translate(-234.63 -174.73)"/><path class="cls-1" d="M364.67,367.67V355.05h-3v-3.38h6.81v16h3v3.39h-9.81v-3.39Zm-.54-22.59a2.28,2.28,0,0,1,.65-1.61,2.2,2.2,0,0,1,1.65-.68,2.27,2.27,0,0,1,1.63.66,2.19,2.19,0,0,1,.68,1.63,2.22,2.22,0,0,1-.68,1.63,2.24,2.24,0,0,1-1.63.67,2.3,2.3,0,0,1-2.3-2.3Z" transform="translate(-234.63 -174.73)"/><path class="cls-1" d="M380.21,351.67V354c2.44-1.76,4.67-2.65,6.69-2.65a5.14,5.14,0,0,1,3.11.9,4.07,4.07,0,0,1,1.61,2.18,13.87,13.87,0,0,1,.39,3.78v9.45h3.26v3.39H388.2V358.38a4.34,4.34,0,0,0-.66-2.88,2.17,2.17,0,0,0-1.62-.67q-2.54,0-5.71,2.46v10.38h3.34v3.39H373v-3.39h3.4V355.05H373v-3.38Z" transform="translate(-234.63 -174.73)"/><path class="cls-1" d="M420.18,351.67v3.38H416.7v14.44a22.8,22.8,0,0,1-.3,4.34,7.18,7.18,0,0,1-1.46,2.89,8.65,8.65,0,0,1-3.45,2.47,12.75,12.75,0,0,1-5.15,1,12.23,12.23,0,0,1-7.65-2.58l2.48-2.77a8.75,8.75,0,0,0,5.49,2,7.29,7.29,0,0,0,3-.63,5.41,5.41,0,0,0,2.1-1.54,4.69,4.69,0,0,0,.89-1.71,13.09,13.09,0,0,0,.2-2.73v-1.77a8.69,8.69,0,0,1-2.82,2.17,8.88,8.88,0,0,1-4.21,1,8.74,8.74,0,0,1-6.79-2.89,10.13,10.13,0,0,1-2.63-7.09,10,10,0,0,1,2.9-7.44,9.25,9.25,0,0,1,13.55.23v-2.76Zm-19.69,9.89a6.82,6.82,0,0,0,1.71,4.81,5.68,5.68,0,0,0,4.38,1.86,6.14,6.14,0,0,0,4.49-1.87,6.52,6.52,0,0,0,1.88-4.82,6.38,6.38,0,0,0-1.88-4.8,6.18,6.18,0,0,0-8.72,0A6.42,6.42,0,0,0,400.49,361.56Z" transform="translate(-234.63 -174.73)"/><path class="cls-1" d="M431.32,355.05v-3.38h2.52v-3l3.81-3.49v6.48h3.59v3.38h-3.59v9.42a8.75,8.75,0,0,0,.25,2.79c.17.35.59.53,1.25.53a5.62,5.62,0,0,0,2.09-.4v3.47a8.88,8.88,0,0,1-2.93.52,4.78,4.78,0,0,1-2.82-.77,3.33,3.33,0,0,1-1.37-1.94,20,20,0,0,1-.28-4v-9.62Z" transform="translate(-234.63 -174.73)"/><path class="cls-1" d="M446.39,367.67V346.58h-3.5v-3.39h7.31v10.7c2.28-1.84,4.45-2.77,6.51-2.77a5.72,5.72,0,0,1,3.17.81,4,4,0,0,1,1.69,2.11,12.45,12.45,0,0,1,.45,3.84v9.79h3.31v3.39h-7.11V359.2a18.37,18.37,0,0,0-.15-2.95,1.94,1.94,0,0,0-.77-1.22,2.39,2.39,0,0,0-1.49-.48c-1.47,0-3.34.84-5.61,2.5v10.62h3.37v3.39H442.89v-3.39Z" transform="translate(-234.63 -174.73)"/><path class="cls-1" d="M487.15,362.32h-16.3a7,7,0,0,0,2.12,4.35,6.29,6.29,0,0,0,4.51,1.66,7.39,7.39,0,0,0,6.31-3.2l3.36,1.48a10.09,10.09,0,0,1-4.27,3.78,12.75,12.75,0,0,1-5.48,1.23,11.14,11.14,0,0,1-7.61-2.78,9.46,9.46,0,0,1-3.15-7.48,9.62,9.62,0,0,1,3.07-7.35,10.05,10.05,0,0,1,7.06-2.89,10.42,10.42,0,0,1,7.09,2.82Q487,356.76,487.15,362.32Zm-3.92-2.76a7,7,0,0,0-2.13-3.7,5.89,5.89,0,0,0-4.23-1.65,5.57,5.57,0,0,0-3.9,1.49,6.38,6.38,0,0,0-2,3.86Z" transform="translate(-234.63 -174.73)"/><path class="cls-1" d="M505.61,371.38l-5.2-16.33h-2.36v-3.38h8.17v3.38h-2.54l3.72,11.7,3.7-11.7H509v-3.38h9.37v3.38h-2.13l3.71,11.7,3.72-11.7H521v-3.38h8.75v3.38H527l-5.2,16.33h-3.59l-4.44-14-4.53,14Z" transform="translate(-234.63 -174.73)"/><path class="cls-1" d="M529.45,361.36a9.8,9.8,0,0,1,3-7.36,10,10,0,0,1,7.23-2.88,10.11,10.11,0,0,1,7.19,2.84,10.65,10.65,0,0,1,0,14.81,10.08,10.08,0,0,1-7.2,2.85,10,10,0,0,1-10.2-10.26Zm4,0a6.48,6.48,0,0,0,1.79,4.71,6.16,6.16,0,0,0,8.78,0,6.53,6.53,0,0,0,1.77-4.69,6.4,6.4,0,0,0-1.81-4.69,5.87,5.87,0,0,0-4.36-1.85,5.76,5.76,0,0,0-4.43,1.89A6.58,6.58,0,0,0,533.48,361.35Z" transform="translate(-234.63 -174.73)"/><path class="cls-1" d="M555.8,367.67V355.05h-3.9v-3.38h7V356a7.77,7.77,0,0,1,1.78-2.82,5.64,5.64,0,0,1,2.42-1.48,13.18,13.18,0,0,1,3.47-.37h1v3.85h-.76a12.34,12.34,0,0,0-4.33.58,3.88,3.88,0,0,0-2.13,2.12,15,15,0,0,0-.69,5.49v4.27h4.23v3.39H551.9v-3.39Z" transform="translate(-234.63 -174.73)"/><path class="cls-1" d="M571.14,367.67V346.58h-3.45v-3.39H575v24.48h3v3.39H567.69v-3.39Z" transform="translate(-234.63 -174.73)"/><path class="cls-1" d="M604,367.67v3.39h-7.29v-2.85a9,9,0,0,1-6.93,3.17,9.6,9.6,0,0,1-6.65-2.59,9.38,9.38,0,0,1-2.87-7.35,9.87,9.87,0,0,1,3-7.55,9.48,9.48,0,0,1,6.65-2.77,9.11,9.11,0,0,1,6.85,3.13v-7.67H593v-3.39h7.54v24.48Zm-19.67-6.33a6.51,6.51,0,0,0,1.81,4.93,6.22,6.22,0,0,0,8.68-.09,6.63,6.63,0,0,0,1.89-5,6,6,0,0,0-1.93-4.87,6.56,6.56,0,0,0-4.34-1.64,5.7,5.7,0,0,0-4.35,1.93A6.83,6.83,0,0,0,584.31,361.34Z" transform="translate(-234.63 -174.73)"/><path class="cls-1" d="M238.31,404.71a9.79,9.79,0,0,1,3-7.36,10,10,0,0,1,7.23-2.88,10.11,10.11,0,0,1,7.19,2.84,10.63,10.63,0,0,1,0,14.81,10.54,10.54,0,0,1-14.46,0A9.88,9.88,0,0,1,238.31,404.71Zm4,0a6.5,6.5,0,0,0,1.79,4.71,5.91,5.91,0,0,0,4.38,1.83,5.83,5.83,0,0,0,4.4-1.86,7.05,7.05,0,0,0,0-9.38,5.88,5.88,0,0,0-4.37-1.84,5.8,5.8,0,0,0-4.43,1.88A6.62,6.62,0,0,0,242.34,404.7Z" transform="translate(-234.63 -174.73)"/><path class="cls-1" d="M263.81,411V398.38H261V395h2.83v-2.79q0-3.54,1.5-4.89a5.12,5.12,0,0,1,3.54-1.35c2.94,0,4.65,1.49,5.11,4.47l-3.38.52c-.14-1.24-.62-1.87-1.47-1.87a1.24,1.24,0,0,0-1.18.59,6.41,6.41,0,0,0-.32,2.53V395h3.33v3.37h-3.33V411h3.69v3.39H261V411Z" transform="translate(-234.63 -174.73)"/><path class="cls-1" d="M288.77,414.73l-5.19-16.33h-2.37V395h8.18v3.39h-2.54l3.71,11.7,3.71-11.7h-2.12V395h9.38v3.39h-2.14l3.71,11.7,3.72-11.7h-2.67V395h8.76v3.39h-2.79l-5.2,16.33h-3.58l-4.45-14-4.53,14Z" transform="translate(-234.63 -174.73)"/><path class="cls-1" d="M312.62,404.71a9.78,9.78,0,0,1,3-7.36,10,10,0,0,1,7.23-2.88,10.11,10.11,0,0,1,7.19,2.84,10.63,10.63,0,0,1,0,14.81,10.54,10.54,0,0,1-14.46,0A9.87,9.87,0,0,1,312.62,404.71Zm4,0a6.46,6.46,0,0,0,1.8,4.71,6.13,6.13,0,0,0,8.77,0,7.05,7.05,0,0,0,0-9.38,5.88,5.88,0,0,0-4.37-1.84,5.77,5.77,0,0,0-4.42,1.88A6.58,6.58,0,0,0,316.64,404.7Z" transform="translate(-234.63 -174.73)"/><path class="cls-1" d="M339,411V398.4h-3.91V395H342v4.37a7.71,7.71,0,0,1,1.79-2.82,5.64,5.64,0,0,1,2.41-1.49,13.33,13.33,0,0,1,3.48-.36h1v3.85h-.76a12.13,12.13,0,0,0-4.34.58,3.91,3.91,0,0,0-2.12,2.11,15.05,15.05,0,0,0-.69,5.5V411H347v3.39H335.06V411Z" transform="translate(-234.63 -174.73)"/><path class="cls-1" d="M354.52,411V389.93H351v-3.39h7.29V404l7.25-5.79h-3.22V395h10.71v3.15h-3l-7.27,6,6.83,6.81h3.4v3.39h-5l-9.76-9.76V411h3.35v3.39H351V411Z" transform="translate(-234.63 -174.73)"/><path class="cls-1" d="M388.35,411V398.38h-2.82V395h2.82v-2.79q0-3.54,1.5-4.89A5.16,5.16,0,0,1,393.4,386q4.41,0,5.11,4.47l-3.39.52c-.13-1.24-.62-1.87-1.46-1.87a1.23,1.23,0,0,0-1.18.59,6.41,6.41,0,0,0-.32,2.53V395h3.32v3.37h-3.32V411h3.69v3.39H385.53V411Z" transform="translate(-234.63 -174.73)"/><path class="cls-1" d="M398,404.71a9.79,9.79,0,0,1,3-7.36,10,10,0,0,1,7.23-2.88,10.11,10.11,0,0,1,7.19,2.84,10.63,10.63,0,0,1,0,14.81,10.08,10.08,0,0,1-7.2,2.85A10,10,0,0,1,398,404.71Zm4,0a6.5,6.5,0,0,0,1.79,4.71,5.91,5.91,0,0,0,4.38,1.83,5.85,5.85,0,0,0,4.4-1.86,7.05,7.05,0,0,0,0-9.38,5.89,5.89,0,0,0-4.37-1.84,5.79,5.79,0,0,0-4.43,1.88A6.62,6.62,0,0,0,402,404.7Z" transform="translate(-234.63 -174.73)"/><path class="cls-1" d="M424.31,411V398.4H420.4V395h7v4.37a7.69,7.69,0,0,1,1.78-2.82,5.73,5.73,0,0,1,2.42-1.49,13.24,13.24,0,0,1,3.47-.36h1v3.85h-.76a12.11,12.11,0,0,0-4.33.58,3.9,3.9,0,0,0-2.13,2.11,15.05,15.05,0,0,0-.69,5.5V411h4.23v3.39H420.4V411Z" transform="translate(-234.63 -174.73)"/><path class="cls-1" d="M471.63,395v3.39h-3.49v14.44a22.8,22.8,0,0,1-.3,4.34,7.12,7.12,0,0,1-1.45,2.88,8.64,8.64,0,0,1-3.45,2.48,12.79,12.79,0,0,1-5.15,1,12.28,12.28,0,0,1-7.66-2.58l2.49-2.77a8.75,8.75,0,0,0,5.49,2,7.33,7.33,0,0,0,3-.64,5.3,5.3,0,0,0,2.1-1.53,4.85,4.85,0,0,0,.89-1.71,13.2,13.2,0,0,0,.2-2.74v-1.76a8.87,8.87,0,0,1-2.83,2.16,9.3,9.3,0,0,1-11-1.86,10.15,10.15,0,0,1-2.63-7.09,10,10,0,0,1,2.9-7.44,9.25,9.25,0,0,1,13.55.23V395Zm-19.69,9.9a6.84,6.84,0,0,0,1.71,4.81,5.68,5.68,0,0,0,4.38,1.86,6.12,6.12,0,0,0,4.48-1.87,6.5,6.5,0,0,0,1.89-4.82,6.35,6.35,0,0,0-1.89-4.8,6.17,6.17,0,0,0-8.71,0A6.42,6.42,0,0,0,451.94,404.91Z" transform="translate(-234.63 -174.73)"/><path class="cls-1" d="M472.42,404.71a9.79,9.79,0,0,1,3-7.36,10,10,0,0,1,7.23-2.88,10.11,10.11,0,0,1,7.19,2.84,10.65,10.65,0,0,1,0,14.81,10.08,10.08,0,0,1-7.2,2.85,10,10,0,0,1-10.2-10.26Zm4,0a6.5,6.5,0,0,0,1.79,4.71,5.9,5.9,0,0,0,4.38,1.83,5.81,5.81,0,0,0,4.39-1.86,7,7,0,0,0,0-9.38,5.86,5.86,0,0,0-4.36-1.84,5.79,5.79,0,0,0-4.43,1.88A6.62,6.62,0,0,0,476.45,404.7Z" transform="translate(-234.63 -174.73)"/><path class="cls-1" d="M495.53,404.71a9.82,9.82,0,0,1,3-7.36,10,10,0,0,1,7.24-2.88,10.13,10.13,0,0,1,7.19,2.84,10.65,10.65,0,0,1,0,14.81,10.55,10.55,0,0,1-14.47,0A9.91,9.91,0,0,1,495.53,404.71Zm4,0a6.46,6.46,0,0,0,1.79,4.71,5.88,5.88,0,0,0,4.38,1.83,5.81,5.81,0,0,0,4.39-1.86,7,7,0,0,0,0-9.38,5.86,5.86,0,0,0-4.36-1.84A5.79,5.79,0,0,0,501.3,400,6.62,6.62,0,0,0,499.56,404.7Z" transform="translate(-234.63 -174.73)"/><path class="cls-1" d="M542.62,411v3.39h-7.3v-2.85a9,9,0,0,1-6.93,3.17,9.65,9.65,0,0,1-6.65-2.59q-2.87-2.58-2.86-7.35a9.86,9.86,0,0,1,2.94-7.55,9.45,9.45,0,0,1,6.65-2.77,9.08,9.08,0,0,1,6.85,3.13v-7.67H531.6v-3.39h7.53V411Zm-19.68-6.33a6.48,6.48,0,0,0,1.82,4.93,6.21,6.21,0,0,0,8.67-.09,6.63,6.63,0,0,0,1.89-5,6,6,0,0,0-1.93-4.87,6.55,6.55,0,0,0-4.34-1.64,5.63,5.63,0,0,0-4.34,1.93A6.8,6.8,0,0,0,522.94,404.69Z" transform="translate(-234.63 -174.73)"/><polygon class="cls-1" points="111.07 3.94 0 3.94 0 32.81 47.87 32.81 62.51 19.37 77.26 32.81 111.07 32.81 124.5 18.37 111.07 3.94"/><polygon class="cls-1" points="77.26 139.11 77.26 37.77 62.51 24.33 47.87 37.77 47.87 139.11 77.26 139.11"/><path class="cls-1" d="M600,192.87c-10-10.45-24-16.21-40.66-16.77l13,14,.34.35-.34.36L559.22,205c8.63.43,15.34,3.07,19.95,7.88a31.15,31.15,0,0,1,7.09,13l29.4-1.18C613,211.63,607.78,201,600,192.87Z" transform="translate(-234.63 -174.73)"/><path class="cls-1" d="M586.26,266.65a31.15,31.15,0,0,1-7.09,13c-4.59,4.79-11.26,7.43-19.84,7.88L545.86,302l13.37,14.39c16.65-.54,30.71-6.3,40.76-16.76,7.79-8.12,13-18.77,15.67-31.82Z" transform="translate(-234.63 -174.73)"/><path class="cls-1" d="M541,302.37l-.34-.35.34-.35,13.12-14.13c-15-.56-29.59-6.7-29.59-40.63,0-15.83,3.25-27.27,9.66-34,4.58-4.81,11.25-7.46,19.84-7.91l13.48-14.51L554.11,176.1c-16.73.53-30.82,6.34-40.87,16.9-11.69,12.28-17.62,30.42-17.62,53.91s6,41.5,17.81,53.46c10,10.16,23.69,15.54,40.58,16.05Z" transform="translate(-234.63 -174.73)"/><path class="cls-1" d="M434,302l-13.46-14.48c-8.66-.43-15.05-3-19-7.83-4.63-5.62-5.32-13.08-5.32-17v-84H367.32v84c0,13.5,4.23,26.06,11.9,35.39,6.67,8.09,19.2,17.68,41.32,18.37Z" transform="translate(-234.63 -174.73)"/><path class="cls-1" d="M464.43,174.73,450,188.17v74.49c0,3.95-.69,11.41-5.32,17-3.93,4.77-10.31,7.4-19,7.83l13.12,14.13.34.35-.34.35-13.07,14.07c22-.73,34.54-10.29,41.19-18.37,7.68-9.33,11.91-21.89,11.91-35.39V188.17Z" transform="translate(-234.63 -174.73)"/></svg>